<mxfile host="app.diagrams.net" modified="2023-04-05T09:22:14.521Z" agent="Mozilla/5.0 (Windows NT 10.0; Win64; x64) AppleWebKit/537.36 (KHTML, like Gecko) Chrome/87.0.4280.66 Safari/537.36" etag="2hhoEhVDv9IlX3OYeNbw" version="21.1.4" type="github">
  <diagram name="第 1 页" id="ETs2_evzgo0KzHqzsMSg">
    <mxGraphModel dx="794" dy="1646" grid="1" gridSize="10" guides="1" tooltips="1" connect="1" arrows="1" fold="1" page="1" pageScale="1" pageWidth="827" pageHeight="1169" math="0" shadow="0">
      <root>
        <mxCell id="0" />
        <mxCell id="1" parent="0" />
        <mxCell id="mZCElO0KBdun7-kDRUIU-1" value="" style="rounded=1;whiteSpace=wrap;html=1;fillColor=#60A917;strokeColor=#2D7600;" vertex="1" parent="1">
          <mxGeometry x="29" y="-30" width="140" height="90" as="geometry" />
        </mxCell>
        <mxCell id="mZCElO0KBdun7-kDRUIU-2" value="&lt;font style=&quot;font-size: 14px;&quot;&gt;本地仓库&lt;/font&gt;" style="text;html=1;strokeColor=none;fillColor=none;align=center;verticalAlign=middle;whiteSpace=wrap;rounded=0;" vertex="1" parent="1">
          <mxGeometry x="69" y="-31" width="60" height="30" as="geometry" />
        </mxCell>
        <mxCell id="mZCElO0KBdun7-kDRUIU-9" value="" style="rounded=1;whiteSpace=wrap;html=1;fontSize=11;fillColor=#fff2cc;strokeColor=#d6b656;" vertex="1" parent="1">
          <mxGeometry x="10" y="156" width="810" height="320" as="geometry" />
        </mxCell>
        <mxCell id="mZCElO0KBdun7-kDRUIU-10" value="&lt;font style=&quot;font-size: 18px;&quot;&gt;服务部署&lt;/font&gt;" style="text;html=1;strokeColor=none;fillColor=none;align=center;verticalAlign=middle;whiteSpace=wrap;rounded=0;fontSize=11;" vertex="1" parent="1">
          <mxGeometry x="730" y="301" width="80" height="30" as="geometry" />
        </mxCell>
        <mxCell id="mZCElO0KBdun7-kDRUIU-11" value="" style="rounded=1;whiteSpace=wrap;html=1;fontSize=11;" vertex="1" parent="1">
          <mxGeometry x="30" y="176" width="120" height="280" as="geometry" />
        </mxCell>
        <mxCell id="mZCElO0KBdun7-kDRUIU-12" value="&lt;font style=&quot;font-size: 14px;&quot;&gt;下载&lt;/font&gt;" style="text;html=1;strokeColor=none;fillColor=none;align=center;verticalAlign=middle;whiteSpace=wrap;rounded=0;fontSize=11;" vertex="1" parent="1">
          <mxGeometry x="60" y="176" width="60" height="30" as="geometry" />
        </mxCell>
        <mxCell id="mZCElO0KBdun7-kDRUIU-13" value="" style="rounded=1;whiteSpace=wrap;html=1;fontSize=11;" vertex="1" parent="1">
          <mxGeometry x="170" y="176" width="120" height="280" as="geometry" />
        </mxCell>
        <mxCell id="mZCElO0KBdun7-kDRUIU-14" value="" style="rounded=1;whiteSpace=wrap;html=1;fontSize=11;" vertex="1" parent="1">
          <mxGeometry x="310" y="176" width="120" height="150" as="geometry" />
        </mxCell>
        <mxCell id="mZCElO0KBdun7-kDRUIU-15" value="" style="rounded=1;whiteSpace=wrap;html=1;fontSize=11;" vertex="1" parent="1">
          <mxGeometry x="450" y="176" width="120" height="274" as="geometry" />
        </mxCell>
        <mxCell id="mZCElO0KBdun7-kDRUIU-16" value="" style="rounded=1;whiteSpace=wrap;html=1;fontSize=11;" vertex="1" parent="1">
          <mxGeometry x="590" y="176" width="120" height="274" as="geometry" />
        </mxCell>
        <mxCell id="mZCElO0KBdun7-kDRUIU-17" value="&lt;font style=&quot;font-size: 14px;&quot;&gt;安装&lt;/font&gt;" style="text;html=1;strokeColor=none;fillColor=none;align=center;verticalAlign=middle;whiteSpace=wrap;rounded=0;fontSize=11;" vertex="1" parent="1">
          <mxGeometry x="200" y="176" width="60" height="30" as="geometry" />
        </mxCell>
        <mxCell id="mZCElO0KBdun7-kDRUIU-18" value="&lt;font style=&quot;font-size: 14px;&quot;&gt;更新&lt;/font&gt;" style="text;html=1;strokeColor=none;fillColor=none;align=center;verticalAlign=middle;whiteSpace=wrap;rounded=0;fontSize=11;" vertex="1" parent="1">
          <mxGeometry x="340" y="176" width="60" height="30" as="geometry" />
        </mxCell>
        <mxCell id="mZCElO0KBdun7-kDRUIU-19" value="&lt;font style=&quot;font-size: 14px;&quot;&gt;卸载&lt;/font&gt;" style="text;html=1;strokeColor=none;fillColor=none;align=center;verticalAlign=middle;whiteSpace=wrap;rounded=0;fontSize=11;" vertex="1" parent="1">
          <mxGeometry x="480" y="176" width="60" height="30" as="geometry" />
        </mxCell>
        <mxCell id="mZCElO0KBdun7-kDRUIU-20" value="&lt;font style=&quot;font-size: 14px;&quot;&gt;解析并对外&lt;br&gt;提供接口&lt;/font&gt;" style="text;html=1;strokeColor=none;fillColor=none;align=center;verticalAlign=middle;whiteSpace=wrap;rounded=0;fontSize=11;" vertex="1" parent="1">
          <mxGeometry x="600" y="180" width="100" height="30" as="geometry" />
        </mxCell>
        <mxCell id="mZCElO0KBdun7-kDRUIU-22" value="复制" style="rounded=1;whiteSpace=wrap;html=1;fontSize=11;" vertex="1" parent="1">
          <mxGeometry x="42.5" y="206" width="95" height="30" as="geometry" />
        </mxCell>
        <mxCell id="mZCElO0KBdun7-kDRUIU-23" value="包校验" style="rounded=1;whiteSpace=wrap;html=1;fontSize=11;" vertex="1" parent="1">
          <mxGeometry x="43" y="251" width="95" height="30" as="geometry" />
        </mxCell>
        <mxCell id="mZCElO0KBdun7-kDRUIU-24" value="包解压" style="rounded=1;whiteSpace=wrap;html=1;fontSize=11;" vertex="1" parent="1">
          <mxGeometry x="182.5" y="206" width="95" height="30" as="geometry" />
        </mxCell>
        <mxCell id="mZCElO0KBdun7-kDRUIU-25" value="资源初始化" style="rounded=1;whiteSpace=wrap;html=1;fontSize=11;" vertex="1" parent="1">
          <mxGeometry x="182.5" y="246" width="95" height="30" as="geometry" />
        </mxCell>
        <mxCell id="mZCElO0KBdun7-kDRUIU-27" value="版本管理" style="rounded=1;whiteSpace=wrap;html=1;fontSize=11;" vertex="1" parent="1">
          <mxGeometry x="322.5" y="246" width="95" height="30" as="geometry" />
        </mxCell>
        <mxCell id="mZCElO0KBdun7-kDRUIU-29" value="安装包清理" style="rounded=1;whiteSpace=wrap;html=1;fontSize=11;" vertex="1" parent="1">
          <mxGeometry x="462.5" y="246" width="95" height="30" as="geometry" />
        </mxCell>
        <mxCell id="mZCElO0KBdun7-kDRUIU-30" value="用户数据清理" style="rounded=1;whiteSpace=wrap;html=1;fontSize=11;" vertex="1" parent="1">
          <mxGeometry x="462.5" y="286" width="95" height="30" as="geometry" />
        </mxCell>
        <mxCell id="mZCElO0KBdun7-kDRUIU-31" value="数据库清理" style="rounded=1;whiteSpace=wrap;html=1;fontSize=11;" vertex="1" parent="1">
          <mxGeometry x="462.5" y="326" width="95" height="30" as="geometry" />
        </mxCell>
        <mxCell id="mZCElO0KBdun7-kDRUIU-32" value="" style="dashed=1;rounded=1;whiteSpace=wrap;html=1;fontSize=11;" vertex="1" parent="1">
          <mxGeometry x="35" y="306" width="110" height="120" as="geometry" />
        </mxCell>
        <mxCell id="mZCElO0KBdun7-kDRUIU-33" value="" style="shape=cylinder3;whiteSpace=wrap;html=1;boundedLbl=1;backgroundOutline=1;size=15;fontSize=11;fillColor=#f8cecc;strokeColor=#b85450;" vertex="1" parent="1">
          <mxGeometry x="45" y="312" width="90" height="50" as="geometry" />
        </mxCell>
        <mxCell id="mZCElO0KBdun7-kDRUIU-34" value="upk下载信息库" style="text;html=1;strokeColor=none;fillColor=none;align=center;verticalAlign=middle;whiteSpace=wrap;rounded=0;fontSize=11;" vertex="1" parent="1">
          <mxGeometry x="45.5" y="334" width="90" height="30" as="geometry" />
        </mxCell>
        <mxCell id="mZCElO0KBdun7-kDRUIU-35" value="" style="dashed=1;rounded=1;whiteSpace=wrap;html=1;fontSize=11;" vertex="1" parent="1">
          <mxGeometry x="175" y="328" width="110" height="96" as="geometry" />
        </mxCell>
        <mxCell id="mZCElO0KBdun7-kDRUIU-36" value="" style="shape=cylinder3;whiteSpace=wrap;html=1;boundedLbl=1;backgroundOutline=1;size=15;fontSize=11;fillColor=#f8cecc;strokeColor=#b85450;" vertex="1" parent="1">
          <mxGeometry x="185.5" y="347" width="90" height="55" as="geometry" />
        </mxCell>
        <mxCell id="mZCElO0KBdun7-kDRUIU-37" value="upk安装信息库" style="text;html=1;strokeColor=none;fillColor=none;align=center;verticalAlign=middle;whiteSpace=wrap;rounded=0;fontSize=11;" vertex="1" parent="1">
          <mxGeometry x="185.5" y="372" width="90" height="30" as="geometry" />
        </mxCell>
        <mxCell id="mZCElO0KBdun7-kDRUIU-38" value="" style="shape=cylinder3;whiteSpace=wrap;html=1;boundedLbl=1;backgroundOutline=1;size=15;fontSize=11;fillColor=#f8cecc;strokeColor=#b85450;" vertex="1" parent="1">
          <mxGeometry x="45" y="366" width="90" height="50" as="geometry" />
        </mxCell>
        <mxCell id="mZCElO0KBdun7-kDRUIU-39" value="本地服务信息库" style="text;html=1;strokeColor=none;fillColor=none;align=center;verticalAlign=middle;whiteSpace=wrap;rounded=0;fontSize=11;" vertex="1" parent="1">
          <mxGeometry x="45.5" y="389" width="90" height="30" as="geometry" />
        </mxCell>
        <mxCell id="mZCElO0KBdun7-kDRUIU-40" value="" style="group;fillColor=#60A917;" vertex="1" connectable="0" parent="1">
          <mxGeometry x="49" y="-1" width="103" height="50" as="geometry" />
        </mxCell>
        <mxCell id="mZCElO0KBdun7-kDRUIU-41" value="" style="rounded=1;whiteSpace=wrap;html=1;fontSize=18;fillColor=#60A917;strokeColor=#2D7600;" vertex="1" parent="mZCElO0KBdun7-kDRUIU-40">
          <mxGeometry width="83" height="30" as="geometry" />
        </mxCell>
        <mxCell id="mZCElO0KBdun7-kDRUIU-42" value="" style="rounded=1;whiteSpace=wrap;html=1;fontSize=18;fillColor=#60A917;strokeColor=#2D7600;" vertex="1" parent="mZCElO0KBdun7-kDRUIU-40">
          <mxGeometry x="10" y="10" width="83" height="30" as="geometry" />
        </mxCell>
        <mxCell id="mZCElO0KBdun7-kDRUIU-43" value="&lt;font color=&quot;#ffffff&quot;&gt;upk&lt;/font&gt;" style="rounded=1;whiteSpace=wrap;html=1;fontSize=18;fillColor=#60A917;strokeColor=#2D7600;" vertex="1" parent="mZCElO0KBdun7-kDRUIU-40">
          <mxGeometry x="20" y="20" width="83" height="30" as="geometry" />
        </mxCell>
        <mxCell id="mZCElO0KBdun7-kDRUIU-44" value="" style="dashed=1;rounded=1;whiteSpace=wrap;html=1;fontSize=14;" vertex="1" parent="1">
          <mxGeometry x="200" y="-60" width="217.5" height="140" as="geometry" />
        </mxCell>
        <mxCell id="mZCElO0KBdun7-kDRUIU-45" value="卡片信息解析" style="rounded=1;whiteSpace=wrap;html=1;fontSize=11;" vertex="1" parent="1">
          <mxGeometry x="602.5" y="216" width="95" height="30" as="geometry" />
        </mxCell>
        <mxCell id="mZCElO0KBdun7-kDRUIU-46" value="接口提供" style="rounded=1;whiteSpace=wrap;html=1;fontSize=11;" vertex="1" parent="1">
          <mxGeometry x="602.5" y="266" width="95" height="30" as="geometry" />
        </mxCell>
        <mxCell id="mZCElO0KBdun7-kDRUIU-48" value="" style="dashed=1;endArrow=classic;html=1;rounded=0;fontSize=14;exitX=0.5;exitY=1;exitDx=0;exitDy=0;entryX=0.25;entryY=0;entryDx=0;entryDy=0;" edge="1" parent="1" source="mZCElO0KBdun7-kDRUIU-1" target="mZCElO0KBdun7-kDRUIU-12">
          <mxGeometry width="50" height="50" relative="1" as="geometry">
            <mxPoint x="364" y="139" as="sourcePoint" />
            <mxPoint x="414" y="89" as="targetPoint" />
          </mxGeometry>
        </mxCell>
        <mxCell id="mZCElO0KBdun7-kDRUIU-49" value="包扫描" style="text;html=1;strokeColor=none;fillColor=none;align=center;verticalAlign=middle;whiteSpace=wrap;rounded=0;fontSize=14;" vertex="1" parent="1">
          <mxGeometry x="35" y="80" width="60" height="30" as="geometry" />
        </mxCell>
        <mxCell id="mZCElO0KBdun7-kDRUIU-50" value="" style="dashed=1;endArrow=classic;html=1;rounded=0;fontSize=14;exitX=0.027;exitY=0.95;exitDx=0;exitDy=0;entryX=0.639;entryY=0.039;entryDx=0;entryDy=0;entryPerimeter=0;exitPerimeter=0;" edge="1" parent="1" source="mZCElO0KBdun7-kDRUIU-44" target="mZCElO0KBdun7-kDRUIU-12">
          <mxGeometry width="50" height="50" relative="1" as="geometry">
            <mxPoint x="109" y="70" as="sourcePoint" />
            <mxPoint x="85" y="186" as="targetPoint" />
          </mxGeometry>
        </mxCell>
        <mxCell id="mZCElO0KBdun7-kDRUIU-51" value="包扫描" style="text;html=1;strokeColor=none;fillColor=none;align=center;verticalAlign=middle;whiteSpace=wrap;rounded=0;fontSize=14;" vertex="1" parent="1">
          <mxGeometry x="169" y="100" width="60" height="30" as="geometry" />
        </mxCell>
        <mxCell id="mZCElO0KBdun7-kDRUIU-54" value="" style="group" vertex="1" connectable="0" parent="1">
          <mxGeometry x="210" y="-20" width="92.82700421940928" height="60" as="geometry" />
        </mxCell>
        <mxCell id="mZCElO0KBdun7-kDRUIU-55" value="" style="rounded=1;whiteSpace=wrap;html=1;fontSize=14;fillColor=#60A917;strokeColor=#2D7600;" vertex="1" parent="mZCElO0KBdun7-kDRUIU-54">
          <mxGeometry width="92.82700421940928" height="60" as="geometry" />
        </mxCell>
        <mxCell id="mZCElO0KBdun7-kDRUIU-56" value="业务方1 APK" style="text;html=1;strokeColor=none;fillColor=none;align=center;verticalAlign=middle;whiteSpace=wrap;rounded=0;fontSize=14;" vertex="1" parent="mZCElO0KBdun7-kDRUIU-54">
          <mxGeometry x="3.79746835443038" y="3.157894736842105" width="84.38818565400844" height="23.684210526315788" as="geometry" />
        </mxCell>
        <mxCell id="mZCElO0KBdun7-kDRUIU-57" value="UPK" style="rounded=1;whiteSpace=wrap;html=1;fontSize=14;" vertex="1" parent="mZCElO0KBdun7-kDRUIU-54">
          <mxGeometry x="110.9704641350211" y="18.94736842105263" width="68.35443037974683" height="25.26315789473684" as="geometry" />
        </mxCell>
        <mxCell id="mZCElO0KBdun7-kDRUIU-58" value="&lt;font color=&quot;#ffffff&quot;&gt;UPK&lt;/font&gt;" style="rounded=1;whiteSpace=wrap;html=1;fontSize=14;fillColor=#60A917;strokeColor=#2D7600;" vertex="1" parent="mZCElO0KBdun7-kDRUIU-54">
          <mxGeometry x="12.658227848101266" y="26.84210526315789" width="67.51054852320675" height="26.84210526315789" as="geometry" />
        </mxCell>
        <mxCell id="mZCElO0KBdun7-kDRUIU-59" value="" style="group" vertex="1" connectable="0" parent="1">
          <mxGeometry x="317.1729957805907" y="-20" width="92.82700421940928" height="60" as="geometry" />
        </mxCell>
        <mxCell id="mZCElO0KBdun7-kDRUIU-60" value="" style="rounded=1;whiteSpace=wrap;html=1;fontSize=14;fillColor=#60A917;strokeColor=#60A917;" vertex="1" parent="mZCElO0KBdun7-kDRUIU-59">
          <mxGeometry width="92.82700421940928" height="60" as="geometry" />
        </mxCell>
        <mxCell id="mZCElO0KBdun7-kDRUIU-61" value="业务方2 APK" style="text;html=1;strokeColor=none;fillColor=none;align=center;verticalAlign=middle;whiteSpace=wrap;rounded=0;fontSize=14;" vertex="1" parent="mZCElO0KBdun7-kDRUIU-59">
          <mxGeometry x="3.79746835443038" y="3.157894736842105" width="84.38818565400844" height="23.684210526315788" as="geometry" />
        </mxCell>
        <mxCell id="mZCElO0KBdun7-kDRUIU-62" value="&lt;font color=&quot;#ffffff&quot;&gt;UPK&lt;/font&gt;" style="rounded=1;whiteSpace=wrap;html=1;fontSize=14;fillColor=#60A917;strokeColor=#2D7600;" vertex="1" parent="mZCElO0KBdun7-kDRUIU-59">
          <mxGeometry x="12.236286919831224" y="26.84210526315789" width="68.35443037974683" height="25.26315789473684" as="geometry" />
        </mxCell>
        <mxCell id="mZCElO0KBdun7-kDRUIU-66" value="服务注册" style="rounded=1;whiteSpace=wrap;html=1;fontSize=11;" vertex="1" parent="1">
          <mxGeometry x="182.5" y="286" width="95" height="30" as="geometry" />
        </mxCell>
        <mxCell id="mZCElO0KBdun7-kDRUIU-67" value="服务解注册" style="rounded=1;whiteSpace=wrap;html=1;fontSize=11;" vertex="1" parent="1">
          <mxGeometry x="462.5" y="368" width="95" height="30" as="geometry" />
        </mxCell>
        <mxCell id="mZCElO0KBdun7-kDRUIU-68" value="" style="rounded=1;whiteSpace=wrap;html=1;fontSize=11;" vertex="1" parent="1">
          <mxGeometry x="310" y="341" width="120" height="114" as="geometry" />
        </mxCell>
        <mxCell id="mZCElO0KBdun7-kDRUIU-69" value="Text" style="text;html=1;strokeColor=none;fillColor=none;align=center;verticalAlign=middle;whiteSpace=wrap;rounded=0;fontSize=12;fontColor=#FFFFFF;" vertex="1" parent="1">
          <mxGeometry x="420" y="310" width="60" height="30" as="geometry" />
        </mxCell>
        <mxCell id="mZCElO0KBdun7-kDRUIU-70" value="&lt;font style=&quot;font-size: 14px;&quot; color=&quot;#000000&quot;&gt;服务部署SDK&lt;/font&gt;" style="text;html=1;strokeColor=none;fillColor=none;align=center;verticalAlign=middle;whiteSpace=wrap;rounded=0;fontSize=12;fontColor=#FFFFFF;" vertex="1" parent="1">
          <mxGeometry x="320" y="343" width="100" height="30" as="geometry" />
        </mxCell>
        <mxCell id="mZCElO0KBdun7-kDRUIU-71" value="&lt;font style=&quot;font-size: 12px;&quot;&gt;通用基础能力封装&lt;/font&gt;" style="rounded=1;whiteSpace=wrap;html=1;fontSize=11;" vertex="1" parent="1">
          <mxGeometry x="322.5" y="388.5" width="95" height="30" as="geometry" />
        </mxCell>
      </root>
    </mxGraphModel>
  </diagram>
</mxfile>
